<svg xmlns="http://www.w3.org/2000/svg" xmlns:xlink="http://www.w3.org/1999/xlink" version="1.1" class="marks" width="967" height="481" viewBox="0 0 967 481"><rect width="967" height="481" fill="#002b36"/><g fill="none" stroke-miterlimit="10" transform="translate(162,29)"><g class="mark-group role-frame root" role="graphics-object" aria-roledescription="group mark container"><g transform="translate(0,0)"><path class="background" aria-hidden="true" d="M0.5,0.5h600v400h-600Z" stroke="#ddd"/><g><g class="mark-group role-axis" aria-hidden="true"><g transform="translate(0.5,400.5)"><path class="background" aria-hidden="true" d="M0,0h0v0h0Z" pointer-events="none"/><g><g class="mark-rule role-axis-grid" pointer-events="none"><line transform="translate(0,0)" x2="0" y2="-400" stroke="#586e75" stroke-width="1" opacity="1"/><line transform="translate(60,0)" x2="0" y2="-400" stroke="#586e75" stroke-width="1" opacity="1"/><line transform="translate(120,0)" x2="0" y2="-400" stroke="#586e75" stroke-width="1" opacity="1"/><line transform="translate(180,0)" x2="0" y2="-400" stroke="#586e75" stroke-width="1" opacity="1"/><line transform="translate(240,0)" x2="0" y2="-400" stroke="#586e75" stroke-width="1" opacity="1"/><line transform="translate(300,0)" x2="0" y2="-400" stroke="#586e75" stroke-width="1" opacity="1"/><line transform="translate(360,0)" x2="0" y2="-400" stroke="#586e75" stroke-width="1" opacity="1"/><line transform="translate(420,0)" x2="0" y2="-400" stroke="#586e75" stroke-width="1" opacity="1"/><line transform="translate(480,0)" x2="0" y2="-400" stroke="#586e75" stroke-width="1" opacity="1"/><line transform="translate(540,0)" x2="0" y2="-400" stroke="#586e75" stroke-width="1" opacity="1"/><line transform="translate(600,0)" x2="0" y2="-400" stroke="#586e75" stroke-width="1" opacity="1"/></g></g><path class="foreground" aria-hidden="true" d="" pointer-events="none" display="none"/></g></g><g class="mark-group role-axis" role="graphics-symbol" aria-roledescription="axis" aria-label="X-axis titled 'Adoption Rate (%)' for a linear scale with values from 0 to 50"><g transform="translate(0.5,400.5)"><path class="background" aria-hidden="true" d="M0,0h0v0h0Z" pointer-events="none"/><g><g class="mark-rule role-axis-tick" pointer-events="none"><line transform="translate(0,0)" x2="0" y2="5" stroke="#888" stroke-width="1" opacity="1"/><line transform="translate(60,0)" x2="0" y2="5" stroke="#888" stroke-width="1" opacity="1"/><line transform="translate(120,0)" x2="0" y2="5" stroke="#888" stroke-width="1" opacity="1"/><line transform="translate(180,0)" x2="0" y2="5" stroke="#888" stroke-width="1" opacity="1"/><line transform="translate(240,0)" x2="0" y2="5" stroke="#888" stroke-width="1" opacity="1"/><line transform="translate(300,0)" x2="0" y2="5" stroke="#888" stroke-width="1" opacity="1"/><line transform="translate(360,0)" x2="0" y2="5" stroke="#888" stroke-width="1" opacity="1"/><line transform="translate(420,0)" x2="0" y2="5" stroke="#888" stroke-width="1" opacity="1"/><line transform="translate(480,0)" x2="0" y2="5" stroke="#888" stroke-width="1" opacity="1"/><line transform="translate(540,0)" x2="0" y2="5" stroke="#888" stroke-width="1" opacity="1"/><line transform="translate(600,0)" x2="0" y2="5" stroke="#888" stroke-width="1" opacity="1"/></g><g class="mark-text role-axis-label" pointer-events="none"><text text-anchor="start" transform="translate(0,21)" font-family="sans-serif" font-size="18px" fill="#eee8d5" opacity="1">0</text><text text-anchor="middle" transform="translate(60,21)" font-family="sans-serif" font-size="18px" fill="#eee8d5" opacity="1">5</text><text text-anchor="middle" transform="translate(120,21)" font-family="sans-serif" font-size="18px" fill="#eee8d5" opacity="1">10</text><text text-anchor="middle" transform="translate(180,21)" font-family="sans-serif" font-size="18px" fill="#eee8d5" opacity="1">15</text><text text-anchor="middle" transform="translate(240,21)" font-family="sans-serif" font-size="18px" fill="#eee8d5" opacity="1">20</text><text text-anchor="middle" transform="translate(300,21)" font-family="sans-serif" font-size="18px" fill="#eee8d5" opacity="1">25</text><text text-anchor="middle" transform="translate(360,21)" font-family="sans-serif" font-size="18px" fill="#eee8d5" opacity="1">30</text><text text-anchor="middle" transform="translate(420,21)" font-family="sans-serif" font-size="18px" fill="#eee8d5" opacity="1">35</text><text text-anchor="middle" transform="translate(480,21)" font-family="sans-serif" font-size="18px" fill="#eee8d5" opacity="1">40</text><text text-anchor="middle" transform="translate(540,21)" font-family="sans-serif" font-size="18px" fill="#eee8d5" opacity="1">45</text><text text-anchor="end" transform="translate(600,21)" font-family="sans-serif" font-size="18px" fill="#eee8d5" opacity="1">50</text></g><g class="mark-rule role-axis-domain" pointer-events="none"><line transform="translate(0,0)" x2="600" y2="0" stroke="#586e75" stroke-width="1" opacity="1"/></g><g class="mark-text role-axis-title" pointer-events="none"><text text-anchor="middle" transform="translate(300,43)" font-family="sans-serif" font-size="18px" font-weight="bold" fill="#eee8d5" opacity="1">Adoption Rate (%)</text></g></g><path class="foreground" aria-hidden="true" d="" pointer-events="none" display="none"/></g></g><g class="mark-group role-axis" role="graphics-symbol" aria-roledescription="axis" aria-label="Y-axis for a discrete scale with 6 values: Immigration, Personal Injury, Civil Litigation, Criminal Law, Family Law, Trusts and Estates"><g transform="translate(0.5,0.5)"><path class="background" aria-hidden="true" d="M0,0h0v0h0Z" pointer-events="none"/><g><g class="mark-rule role-axis-tick" pointer-events="none"><line transform="translate(0,33)" x2="-5" y2="0" stroke="#888" stroke-width="1" opacity="1"/><line transform="translate(0,100)" x2="-5" y2="0" stroke="#888" stroke-width="1" opacity="1"/><line transform="translate(0,167)" x2="-5" y2="0" stroke="#888" stroke-width="1" opacity="1"/><line transform="translate(0,233)" x2="-5" y2="0" stroke="#888" stroke-width="1" opacity="1"/><line transform="translate(0,300)" x2="-5" y2="0" stroke="#888" stroke-width="1" opacity="1"/><line transform="translate(0,367)" x2="-5" y2="0" stroke="#888" stroke-width="1" opacity="1"/></g><g class="mark-text role-axis-label" pointer-events="none"><text text-anchor="end" transform="translate(-7,38.333333333333314)" font-family="sans-serif" font-size="18px" fill="#eee8d5" opacity="1">Immigration</text><text text-anchor="end" transform="translate(-7,104.99999999999999)" font-family="sans-serif" font-size="18px" fill="#eee8d5" opacity="1">Personal Injury</text><text text-anchor="end" transform="translate(-7,171.66666666666666)" font-family="sans-serif" font-size="18px" fill="#eee8d5" opacity="1">Civil Litigation</text><text text-anchor="end" transform="translate(-7,238.33333333333331)" font-family="sans-serif" font-size="18px" fill="#eee8d5" opacity="1">Criminal Law</text><text text-anchor="end" transform="translate(-7,305)" font-family="sans-serif" font-size="18px" fill="#eee8d5" opacity="1">Family Law</text><text text-anchor="end" transform="translate(-7,371.6666666666667)" font-family="sans-serif" font-size="18px" fill="#eee8d5" opacity="1">Trusts and Estates</text></g><g class="mark-rule role-axis-domain" pointer-events="none"><line transform="translate(0,0)" x2="0" y2="400" stroke="#586e75" stroke-width="1" opacity="1"/></g></g><path class="foreground" aria-hidden="true" d="" pointer-events="none" display="none"/></g></g><g class="mark-group role-scope layer_0_pathgroup" role="graphics-object" aria-roledescription="group mark container"><g transform="translate(0,0)"><path class="background" aria-hidden="true" d="M0,0h600v400h-600Z"/><g><g class="mark-line role-mark layer_0_marks" role="graphics-object" aria-roledescription="line mark container"><path aria-label="Adoption Rate: 47; Practice Area: Immigration" role="graphics-symbol" aria-roledescription="line mark" d="M564,33.333L204,33.333" stroke="#586e75" stroke-width="2" stroke-dasharray="3,3"/></g></g><path class="foreground" aria-hidden="true" d="" display="none"/></g><g transform="translate(0,0)"><path class="background" aria-hidden="true" d="M0,0h600v400h-600Z"/><g><g class="mark-line role-mark layer_0_marks" role="graphics-object" aria-roledescription="line mark container"><path aria-label="Adoption Rate: 37; Practice Area: Personal Injury" role="graphics-symbol" aria-roledescription="line mark" d="M444,100L240,100" stroke="#586e75" stroke-width="2" stroke-dasharray="3,3"/></g></g><path class="foreground" aria-hidden="true" d="" display="none"/></g><g transform="translate(0,0)"><path class="background" aria-hidden="true" d="M0,0h600v400h-600Z"/><g><g class="mark-line role-mark layer_0_marks" role="graphics-object" aria-roledescription="line mark container"><path aria-label="Adoption Rate: 36; Practice Area: Civil Litigation" role="graphics-symbol" aria-roledescription="line mark" d="M432,166.667L324,166.667" stroke="#586e75" stroke-width="2" stroke-dasharray="3,3"/></g></g><path class="foreground" aria-hidden="true" d="" display="none"/></g><g transform="translate(0,0)"><path class="background" aria-hidden="true" d="M0,0h600v400h-600Z"/><g><g class="mark-line role-mark layer_0_marks" role="graphics-object" aria-roledescription="line mark container"><path aria-label="Adoption Rate: 28; Practice Area: Criminal Law" role="graphics-symbol" aria-roledescription="line mark" d="M336,233.333L216,233.333" stroke="#586e75" stroke-width="2" stroke-dasharray="3,3"/></g></g><path class="foreground" aria-hidden="true" d="" display="none"/></g><g transform="translate(0,0)"><path class="background" aria-hidden="true" d="M0,0h600v400h-600Z"/><g><g class="mark-line role-mark layer_0_marks" role="graphics-object" aria-roledescription="line mark container"><path aria-label="Adoption Rate: 26; Practice Area: Family Law" role="graphics-symbol" aria-roledescription="line mark" d="M312,300L240,300" stroke="#586e75" stroke-width="2" stroke-dasharray="3,3"/></g></g><path class="foreground" aria-hidden="true" d="" display="none"/></g><g transform="translate(0,0)"><path class="background" aria-hidden="true" d="M0,0h600v400h-600Z"/><g><g class="mark-line role-mark layer_0_marks" role="graphics-object" aria-roledescription="line mark container"><path aria-label="Adoption Rate: 25; Practice Area: Trusts and Estates" role="graphics-symbol" aria-roledescription="line mark" d="M300,366.667L216,366.667" stroke="#586e75" stroke-width="2" stroke-dasharray="3,3"/></g></g><path class="foreground" aria-hidden="true" d="" display="none"/></g></g><g class="mark-symbol role-mark layer_1_marks" role="graphics-object" aria-roledescription="symbol mark container"><path aria-label="Adoption Rate (%): 47; Practice Area: Immigration; Adoption Type: Individual Practitioners; Adoption Rate: 47" role="graphics-symbol" aria-roledescription="circle" transform="translate(564,33.333333333333314)" d="M5,0A5,5,0,1,1,-5,0A5,5,0,1,1,5,0" fill="#b58900" stroke-width="2" opacity="1"/><path aria-label="Adoption Rate (%): 37; Practice Area: Personal Injury; Adoption Type: Individual Practitioners; Adoption Rate: 37" role="graphics-symbol" aria-roledescription="circle" transform="translate(444,99.99999999999999)" d="M5,0A5,5,0,1,1,-5,0A5,5,0,1,1,5,0" fill="#b58900" stroke-width="2" opacity="1"/><path aria-label="Adoption Rate (%): 36; Practice Area: Civil Litigation; Adoption Type: Individual Practitioners; Adoption Rate: 36" role="graphics-symbol" aria-roledescription="circle" transform="translate(432,166.66666666666666)" d="M5,0A5,5,0,1,1,-5,0A5,5,0,1,1,5,0" fill="#b58900" stroke-width="2" opacity="1"/><path aria-label="Adoption Rate (%): 28; Practice Area: Criminal Law; Adoption Type: Individual Practitioners; Adoption Rate: 28" role="graphics-symbol" aria-roledescription="circle" transform="translate(336.00000000000006,233.33333333333331)" d="M5,0A5,5,0,1,1,-5,0A5,5,0,1,1,5,0" fill="#b58900" stroke-width="2" opacity="1"/><path aria-label="Adoption Rate (%): 26; Practice Area: Family Law; Adoption Type: Individual Practitioners; Adoption Rate: 26" role="graphics-symbol" aria-roledescription="circle" transform="translate(312,300)" d="M5,0A5,5,0,1,1,-5,0A5,5,0,1,1,5,0" fill="#b58900" stroke-width="2" opacity="1"/><path aria-label="Adoption Rate (%): 25; Practice Area: Trusts and Estates; Adoption Type: Individual Practitioners; Adoption Rate: 25" role="graphics-symbol" aria-roledescription="circle" transform="translate(300,366.6666666666667)" d="M5,0A5,5,0,1,1,-5,0A5,5,0,1,1,5,0" fill="#b58900" stroke-width="2" opacity="1"/><path aria-label="Adoption Rate (%): 17; Practice Area: Immigration; Adoption Type: Firm Level; Adoption Rate: 17" role="graphics-symbol" aria-roledescription="circle" transform="translate(204.00000000000003,33.333333333333314)" d="M5,0A5,5,0,1,1,-5,0A5,5,0,1,1,5,0" fill="#dc322f" stroke-width="2" opacity="1"/><path aria-label="Adoption Rate (%): 20; Practice Area: Personal Injury; Adoption Type: Firm Level; Adoption Rate: 20" role="graphics-symbol" aria-roledescription="circle" transform="translate(240,99.99999999999999)" d="M5,0A5,5,0,1,1,-5,0A5,5,0,1,1,5,0" fill="#dc322f" stroke-width="2" opacity="1"/><path aria-label="Adoption Rate (%): 27; Practice Area: Civil Litigation; Adoption Type: Firm Level; Adoption Rate: 27" role="graphics-symbol" aria-roledescription="circle" transform="translate(324,166.66666666666666)" d="M5,0A5,5,0,1,1,-5,0A5,5,0,1,1,5,0" fill="#dc322f" stroke-width="2" opacity="1"/><path aria-label="Adoption Rate (%): 18; Practice Area: Criminal Law; Adoption Type: Firm Level; Adoption Rate: 18" role="graphics-symbol" aria-roledescription="circle" transform="translate(216,233.33333333333331)" d="M5,0A5,5,0,1,1,-5,0A5,5,0,1,1,5,0" fill="#dc322f" stroke-width="2" opacity="1"/><path aria-label="Adoption Rate (%): 20; Practice Area: Family Law; Adoption Type: Firm Level; Adoption Rate: 20" role="graphics-symbol" aria-roledescription="circle" transform="translate(240,300)" d="M5,0A5,5,0,1,1,-5,0A5,5,0,1,1,5,0" fill="#dc322f" stroke-width="2" opacity="1"/><path aria-label="Adoption Rate (%): 18; Practice Area: Trusts and Estates; Adoption Type: Firm Level; Adoption Rate: 18" role="graphics-symbol" aria-roledescription="circle" transform="translate(216,366.6666666666667)" d="M5,0A5,5,0,1,1,-5,0A5,5,0,1,1,5,0" fill="#dc322f" stroke-width="2" opacity="1"/></g><g class="mark-text role-mark layer_2_marks" role="graphics-object" aria-roledescription="text mark container"><text aria-label="Adoption Rate (%): 47; Practice Area: Immigration; Adoption Type: Individual Practitioners; Adoption Rate: 47" role="graphics-symbol" aria-roledescription="text mark" text-anchor="start" transform="translate(574,38.333333333333314)" font-family="sans-serif" font-size="15px" fill="#b58900">47</text><text aria-label="Adoption Rate (%): 37; Practice Area: Personal Injury; Adoption Type: Individual Practitioners; Adoption Rate: 37" role="graphics-symbol" aria-roledescription="text mark" text-anchor="start" transform="translate(454,104.99999999999999)" font-family="sans-serif" font-size="15px" fill="#b58900">37</text><text aria-label="Adoption Rate (%): 36; Practice Area: Civil Litigation; Adoption Type: Individual Practitioners; Adoption Rate: 36" role="graphics-symbol" aria-roledescription="text mark" text-anchor="start" transform="translate(442,171.66666666666666)" font-family="sans-serif" font-size="15px" fill="#b58900">36</text><text aria-label="Adoption Rate (%): 28; Practice Area: Criminal Law; Adoption Type: Individual Practitioners; Adoption Rate: 28" role="graphics-symbol" aria-roledescription="text mark" text-anchor="start" transform="translate(346.00000000000006,238.33333333333331)" font-family="sans-serif" font-size="15px" fill="#b58900">28</text><text aria-label="Adoption Rate (%): 26; Practice Area: Family Law; Adoption Type: Individual Practitioners; Adoption Rate: 26" role="graphics-symbol" aria-roledescription="text mark" text-anchor="start" transform="translate(322,305)" font-family="sans-serif" font-size="15px" fill="#b58900">26</text><text aria-label="Adoption Rate (%): 25; Practice Area: Trusts and Estates; Adoption Type: Individual Practitioners; Adoption Rate: 25" role="graphics-symbol" aria-roledescription="text mark" text-anchor="start" transform="translate(310,371.6666666666667)" font-family="sans-serif" font-size="15px" fill="#b58900">25</text><text aria-label="Adoption Rate (%): 17; Practice Area: Immigration; Adoption Type: Firm Level; Adoption Rate: 17" role="graphics-symbol" aria-roledescription="text mark" text-anchor="start" transform="translate(214.00000000000003,38.333333333333314)" font-family="sans-serif" font-size="15px" fill="#dc322f">17</text><text aria-label="Adoption Rate (%): 20; Practice Area: Personal Injury; Adoption Type: Firm Level; Adoption Rate: 20" role="graphics-symbol" aria-roledescription="text mark" text-anchor="start" transform="translate(250,104.99999999999999)" font-family="sans-serif" font-size="15px" fill="#dc322f">20</text><text aria-label="Adoption Rate (%): 27; Practice Area: Civil Litigation; Adoption Type: Firm Level; Adoption Rate: 27" role="graphics-symbol" aria-roledescription="text mark" text-anchor="start" transform="translate(334,171.66666666666666)" font-family="sans-serif" font-size="15px" fill="#dc322f">27</text><text aria-label="Adoption Rate (%): 18; Practice Area: Criminal Law; Adoption Type: Firm Level; Adoption Rate: 18" role="graphics-symbol" aria-roledescription="text mark" text-anchor="start" transform="translate(226,238.33333333333331)" font-family="sans-serif" font-size="15px" fill="#dc322f">18</text><text aria-label="Adoption Rate (%): 20; Practice Area: Family Law; Adoption Type: Firm Level; Adoption Rate: 20" role="graphics-symbol" aria-roledescription="text mark" text-anchor="start" transform="translate(250,305)" font-family="sans-serif" font-size="15px" fill="#dc322f">20</text><text aria-label="Adoption Rate (%): 18; Practice Area: Trusts and Estates; Adoption Type: Firm Level; Adoption Rate: 18" role="graphics-symbol" aria-roledescription="text mark" text-anchor="start" transform="translate(226,371.6666666666667)" font-family="sans-serif" font-size="15px" fill="#dc322f">18</text></g><g class="mark-group role-legend" role="graphics-symbol" aria-roledescription="legend" aria-label="Symbol legend titled 'Adoption Level' for fill color with 2 values: Individual Practitioners, Firm Level"><g transform="translate(618,0)"><path class="background" aria-hidden="true" d="M0,0h182v61h-182Z" pointer-events="none"/><g><g class="mark-group role-legend-entry"><g transform="translate(0,23)"><path class="background" aria-hidden="true" d="M0,0h0v0h0Z" pointer-events="none"/><g><g class="mark-group role-scope" role="graphics-object" aria-roledescription="group mark container"><g transform="translate(0,0)"><path class="background" aria-hidden="true" d="M0,0h182v18h-182Z" pointer-events="none" opacity="1"/><g><g class="mark-symbol role-legend-symbol" pointer-events="none"><path transform="translate(9,9)" d="M5,0A5,5,0,1,1,-5,0A5,5,0,1,1,5,0" fill="#b58900" stroke-width="1.5" opacity="1"/></g><g class="mark-text role-legend-label" pointer-events="none"><text text-anchor="start" transform="translate(22,14)" font-family="sans-serif" font-size="18px" fill="#eee8d5" opacity="1">Individual Practiti…</text></g></g><path class="foreground" aria-hidden="true" d="" pointer-events="none" display="none"/></g><g transform="translate(0,20)"><path class="background" aria-hidden="true" d="M0,0h182v18h-182Z" pointer-events="none" opacity="1"/><g><g class="mark-symbol role-legend-symbol" pointer-events="none"><path transform="translate(9,9)" d="M5,0A5,5,0,1,1,-5,0A5,5,0,1,1,5,0" fill="#dc322f" stroke-width="1.5" opacity="1"/></g><g class="mark-text role-legend-label" pointer-events="none"><text text-anchor="start" transform="translate(22,14)" font-family="sans-serif" font-size="18px" fill="#eee8d5" opacity="1">Firm Level</text></g></g><path class="foreground" aria-hidden="true" d="" pointer-events="none" display="none"/></g></g></g><path class="foreground" aria-hidden="true" d="" pointer-events="none" display="none"/></g></g><g class="mark-text role-legend-title" pointer-events="none"><text text-anchor="start" transform="translate(0,14)" font-family="sans-serif" font-size="18px" font-weight="bold" fill="#eee8d5" opacity="1">Adoption Level</text></g></g><path class="foreground" aria-hidden="true" d="" pointer-events="none" display="none"/></g></g><g class="mark-group role-title"><g transform="translate(300,-24)"><path class="background" aria-hidden="true" d="M0,0h0v0h0Z" pointer-events="none"/><g><g class="mark-text role-title-text" role="graphics-symbol" aria-roledescription="title" aria-label="Title text 'AI Adoption by Practice Area: Individual vs. Firm Level'" pointer-events="none"><text text-anchor="middle" transform="translate(0,16)" font-family="sans-serif" font-size="20px" font-weight="bold" fill="#eee8d5" opacity="1">AI Adoption by Practice Area: Individual vs. Firm Level</text></g></g><path class="foreground" aria-hidden="true" d="" pointer-events="none" display="none"/></g></g></g><path class="foreground" aria-hidden="true" d="" display="none"/></g></g></g></svg>