<svg version="1.1" viewBox="0.0 0.0 960.0 540.0" fill="none" stroke="none" stroke-linecap="square" stroke-miterlimit="10" xmlns:xlink="http://www.w3.org/1999/xlink" xmlns="http://www.w3.org/2000/svg"><clipPath id="p.0"><path d="m0 0l960.0 0l0 540.0l-960.0 0l0 -540.0z" clip-rule="nonzero"/></clipPath><g clip-path="url(#p.0)"><path fill="#000000" fill-opacity="0.0" d="m0 0l960.0 0l0 540.0l-960.0 0z" fill-rule="evenodd"/><g filter="url(#shadowFilter-p.1)"><use xlink:href="#p.1" transform="matrix(1.0 0.0 0.0 1.0 0.0 2.0)"/></g><defs><filter id="shadowFilter-p.1" filterUnits="userSpaceOnUse"><feGaussianBlur in="SourceAlpha" stdDeviation="2.0" result="blur"/><feComponentTransfer in="blur" color-interpolation-filters="sRGB"><feFuncR type="linear" slope="0" intercept="0.0"/><feFuncG type="linear" slope="0" intercept="0.0"/><feFuncB type="linear" slope="0" intercept="0.0"/><feFuncA type="linear" slope="0.5" intercept="0"/></feComponentTransfer></filter></defs><g id="p.1"><path fill="#eeeeee" d="m465.16534 87.97113l0 0c0 -8.192947 6.641693 -14.834648 14.834656 -14.834648l0 0c3.9343872 0 7.7076416 1.5629349 10.489685 4.3449707c2.7820435 2.7820358 4.3449707 6.5552826 4.3449707 10.489677l0 0c0 8.192947 -6.641693 14.8346405 -14.834656 14.8346405l0 0c-8.192963 0 -14.834656 -6.641693 -14.834656 -14.8346405z" fill-rule="evenodd"/><path stroke="#ffffff" stroke-width="1.0" stroke-linejoin="round" stroke-linecap="butt" d="m465.16534 87.97113l0 0c0 -8.192947 6.641693 -14.834648 14.834656 -14.834648l0 0c3.9343872 0 7.7076416 1.5629349 10.489685 4.3449707c2.7820435 2.7820358 4.3449707 6.5552826 4.3449707 10.489677l0 0c0 8.192947 -6.641693 14.8346405 -14.834656 14.8346405l0 0c-8.192963 0 -14.834656 -6.641693 -14.834656 -14.8346405z" fill-rule="evenodd"/></g></g></svg>